{
	"nodes":[{
		"name":"Cartao",
		"translation":[0.0,
		0.0,
		0.0],
		"rotation":[0.0,
		0.0,
		0.7071067690849304,
		-0.7071067690849304],
		"scale":[1.0,
		1.0,
		1.0],
		"mesh":0
	}],
	"asset":{
		"version":"2.0",
		"generator":"Created using the official Cinema 4D glTF Exporter 1.000x284978"
	},
	"textures":[{
		"sampler":0,
		"source":0
	}],
	"scenes":[{
		"nodes":[0]
	}],
	"samplers":[{
		"magFilter":9729,
		"minFilter":9729,
		"wrapS":10497,
		"wrapT":10497
	}],
	"meshes":[{
		"primitives":[{
			"attributes":{
				"POSITION":1,
				"NORMAL":2,
				"TEXCOORD_0":3
			},
			"indices":0,
			"material":0
		}],
		"name":"Cartao"
	}],
	"accessors":[{
		"bufferView":0,
		"type":"SCALAR",
		"componentType":5123,
		"count":852,
		"byteOffset":0,
		"min":[0],
		"max":[311]
	},
	{
		"bufferView":1,
		"type":"VEC3",
		"componentType":5126,
		"count":312,
		"byteOffset":0,
		"min":[-400.0,
		-250.0,
		-4.0],
		"max":[400.0,
		250.0,
		0.0]
	},
	{
		"bufferView":1,
		"type":"VEC3",
		"componentType":5126,
		"count":312,
		"byteOffset":12,
		"min":[-1.0,
		-1.0,
		-1.0],
		"max":[1.0,
		1.0,
		1.0]
	},
	{
		"bufferView":1,
		"type":"VEC2",
		"componentType":5126,
		"count":312,
		"byteOffset":24,
		"min":[0.010441835969686509,
		0.008334128186106682],
		"max":[0.9895581603050232,
		0.9916658401489258]
	}],
	"buffers":[{
		"uri":"data:application/octet-stream;base64,",
		"byteLength":11688
	}],
	"bufferViews":[{
		"buffer":0,
		"byteOffset":0,
		"byteLength":1704,
		"target":34963
	},
	{
		"buffer":0,
		"byteOffset":1704,
		"byteLength":9984,
		"target":34962,
		"byteStride":32
	}],
	"images":[{
		"uri":"data:image/jpeg;base64,"
	}],
	"materials":[{
		"pbrMetallicRoughness":{
			"baseColorTexture":{
				"index":0
			},
			"baseColorFactor":[0.8,
			0.8,
			0.8,
			1.0],
			"metallicFactor":1.0,
			"roughnessFactor":1.0
		},
		"emissiveFactor":[0.0,
		0.0,
		0.0],
		"alphaMode":"OPAQUE",
		"doubleSided":false,
		"name":"Mat"
	}]
}